<svg xmlns="http://www.w3.org/2000/svg" width="841.89" height="595.275" viewBox="0 0 841.89 595.275"><path fill="#919191" d="M337.121 285.735l16.777.164-.584 74.714h111.664v-74.442h17.684v92.588H337.029l.092-93.024z"/><path fill="#919191" d="M364.479 329.903h87.472v18.614h-87.472z"/><path fill="#A78B68" d="M452.217 323.843l-87.535-8.451 1.833-18.988 87.535 8.451z"/><path fill="#C19653" d="M453.973 300.796l-84.63-23.883 5.18-18.358 84.631 23.883z"/><path fill="#D48C28" d="M460.45 277.518l-75.272-45.463 9.861-16.329 75.274 45.463z"/><path fill="#FE8908" d="M473.565 257.755l-51.223-71.484 15.508-11.113 51.223 71.484z"/><path fill="#FF7A15" d="M493.021 245.638l-14.491-86.73 18.814-3.144 14.492 86.73z"/></svg>