<svg version="1" xmlns="http://www.w3.org/2000/svg" width="85.333" height="85.333" fill="#6fda44" stroke="#1e90ff" viewBox="0 0 64.000000 64.000000"><path d="M0 32v32h64V0H0v32zm14-8.8c0 8.6 1.5 12.3 5 12.3s5-3.7 5-12.3V16h3.4c3.1 0 3.4.3 4 3.4.6 3.3 4.5 9.2 4.6 7 0-.6 1.1-2.3 2.5-3.8 4.5-4.9 15.7-2.9 19 3.4 4.5 8.6-2.2 16.7-13.1 15.8l-5.2-.5-.7 3.6c-1.2 6.8-1.4 7.1-5.2 7.1-2.7 0-3.4-.3-2.9-1.5.3-.9 1.1-4.5 1.8-8 .9-5.2.9-7-.2-9.2l-1.3-2.8-.7 3.3c-1.5 6.5-7.7 10-14.5 8.1-6.1-1.7-7.5-4.7-7.5-16V16h6v7.2z" stroke-width=".1"/><path d="M43.2 27.2c-.6.7-1.3 2.5-1.7 4-.6 2.3-.3 2.9 1.8 3.9 5.4 2.5 10.9-2.4 8-7-1.3-2-6.6-2.6-8.1-.9z" stroke-width=".1"/></svg>